<?xml version="1.0" encoding="utf-8"?>
<!-- Generator: Adobe Illustrator 25.0.0, SVG Export Plug-In . SVG Version: 6.00 Build 0)  -->
<svg version="1.1" id="Layer_1" xmlns="http://www.w3.org/2000/svg" xmlns:xlink="http://www.w3.org/1999/xlink" x="0px" y="0px"
	 viewBox="0 0 85.04 22.68" style="enable-background:new 0 0 85.04 22.68;" xml:space="preserve">
<style type="text/css">
	.st0{fill:#FFFFFF;}
</style>
<g>
	<g>
		<path class="st0" d="M61.3,7.38c1.07-0.69,1.79-1.9,1.79-3.27c0-2.14-1.73-3.86-3.88-3.86c-0.1,0-5.17,0-5.17,0v12.24h2.79V7.65
			h1.55l1.68,4.83h3.37L61.3,7.38z M60.3,3.98L60.3,3.98c-0.02,0.78-0.58,1.09-1.28,1.09h-2.18V2.82h2.18
			c0.7,0.01,1.26,0.34,1.28,1.12l0,0c0,0,0,0.01,0,0.02C60.3,3.96,60.3,3.97,60.3,3.98z"/>
		<polygon class="st0" points="45.42,9.89 45.42,7.63 50.58,7.63 50.58,5.06 45.42,5.06 45.42,2.83 51.04,2.83 51.04,0.25 
			42.68,0.25 42.68,12.47 51.16,12.47 51.16,9.89 		"/>
		<polygon class="st0" points="68.84,9.9 68.84,0.25 66.1,0.25 66.1,12.48 74.03,12.48 74.03,9.9 		"/>
		<g>
			<g>
				<path class="st0" d="M38.7,6.14c0.79-0.57,1.18-1.37,1.18-2.41c0-2.15-1.45-3.48-3.8-3.48h-4.9V12.5h5.28
					c2.05,0,3.6-1.57,3.6-3.66C40.06,7.84,39.63,6.73,38.7,6.14z M37.47,8.79L37.47,8.79c-0.02,0.79-0.57,1.09-1.28,1.09h-2.38l0,0
					V2.81l2.18,0.01c0.7,0.01,1.26,0.34,1.28,1.12l0,0c0,0,0,0.01,0,0.02c0,0,0,0.01,0,0.02l0,0c-0.02,0.78-0.57,1.09-1.28,1.09
					h-0.65v2.57h0.85c0.7,0.01,1.26,0.34,1.27,1.12h0.01c0,0.01-0.01,0.01-0.01,0.02C37.46,8.78,37.47,8.79,37.47,8.79z"/>
			</g>
		</g>
		<polygon class="st0" points="8.67,0.28 8.66,0.31 8.62,0.42 4.78,11.23 0.83,0.41 0.79,0.31 0.78,0.28 0,0.28 0.02,0.34 0.1,0.53 
			4.4,12.35 4.44,12.46 4.44,12.49 5.13,12.49 5.14,12.46 5.18,12.35 9.37,0.53 9.43,0.34 9.46,0.28 		"/>
		<g>
			<path class="st0" d="M19.36,0.26v12.23h0.84c0,0,0-9.29,0-10.72c0.8,1.22,7.06,10.72,7.06,10.72h0.86V0.26h-0.83
				c0,0,0,9.3,0,10.73c-0.8-1.21-7.06-10.73-7.06-10.73S19.36,0.26,19.36,0.26z"/>
		</g>
		<path class="st0" d="M17.23,12.5h0.88l-4.4-12.23h-0.75L8.46,12.5h0.88c0,0,0.86-2.37,1.79-4.9h4.34
			C16.38,10.14,17.23,12.5,17.23,12.5z M11.44,6.77c0.87-2.39,1.73-4.72,1.9-5.17c0.16,0.46,0.99,2.78,1.84,5.17H11.44z"/>
		<path class="st0" d="M84.48,2.32C83.87,1.2,82.49,0,80.45,0c-0.03,0-0.55,0-0.58,0c-1.98,0.04-3.32,1.21-3.93,2.32
			c-0.42,0.76-0.56,1.17-0.56,4.06c0,2.88,0.14,3.29,0.56,4.05c0.61,1.11,1.97,2.3,3.97,2.32c0.02,0,0.52,0,0.54,0
			c2.04,0,3.42-1.2,4.03-2.32c0.42-0.76,0.56-1.17,0.56-4.05C85.04,3.49,84.9,3.08,84.48,2.32z M81.95,9.47
			c-0.21,0.27-0.68,0.71-1.5,0.71c-0.02,0-0.51,0-0.53,0c-0.8-0.02-1.25-0.45-1.46-0.71c-0.35-0.47-0.5-0.66-0.5-3.09
			s0.15-2.63,0.51-3.09c0.2-0.25,0.65-0.68,1.44-0.71c0.02,0,0.52,0,0.54,0c0.82,0,1.3,0.45,1.5,0.71c0.36,0.46,0.5,0.65,0.5,3.09
			C82.46,8.81,82.31,9,81.95,9.47z"/>
	</g>
	<g>
		<path class="st0" d="M0.68,16.57h1.56c0.26,0,0.51,0.03,0.74,0.09s0.44,0.15,0.61,0.29c0.17,0.13,0.31,0.3,0.42,0.5
			c0.1,0.2,0.15,0.45,0.15,0.74v0.03c0,0.29-0.05,0.54-0.15,0.75s-0.24,0.37-0.42,0.5c-0.17,0.13-0.38,0.23-0.61,0.29
			c-0.23,0.06-0.48,0.09-0.74,0.09H1.35v2.24H0.68V16.57z M2.29,19.3c0.4,0,0.7-0.09,0.9-0.28c0.21-0.19,0.31-0.46,0.31-0.81v-0.03
			c0-0.39-0.11-0.66-0.32-0.83c-0.22-0.16-0.51-0.24-0.89-0.24H1.35v2.19H2.29z"/>
		<path class="st0" d="M6.08,22.15c-0.18,0-0.36-0.02-0.52-0.07s-0.31-0.12-0.43-0.22c-0.12-0.1-0.22-0.22-0.29-0.37
			c-0.07-0.15-0.1-0.33-0.1-0.53c0-0.23,0.06-0.43,0.17-0.59s0.26-0.29,0.45-0.39c0.19-0.1,0.4-0.17,0.65-0.21
			c0.24-0.04,0.49-0.07,0.75-0.07h0.58v-0.29c0-0.32-0.07-0.55-0.2-0.69c-0.14-0.13-0.36-0.2-0.67-0.2c-0.55,0-0.86,0.24-0.92,0.72
			H4.91c0.02-0.23,0.08-0.43,0.17-0.59c0.1-0.16,0.22-0.29,0.36-0.39s0.31-0.17,0.49-0.22C6.12,18,6.31,17.98,6.5,17.98
			S6.87,18,7.05,18.05c0.18,0.04,0.34,0.12,0.47,0.23c0.13,0.11,0.24,0.26,0.32,0.44c0.08,0.18,0.12,0.42,0.12,0.7v2.66H7.33v-0.51
			C7.19,21.76,7.01,21.9,6.82,22C6.62,22.1,6.38,22.15,6.08,22.15z M6.14,21.64c0.17,0,0.33-0.02,0.47-0.07
			c0.15-0.04,0.27-0.11,0.38-0.19s0.19-0.18,0.25-0.3c0.06-0.12,0.09-0.26,0.09-0.41v-0.5H6.78c-0.2,0-0.39,0.01-0.56,0.04
			s-0.32,0.07-0.45,0.13c-0.13,0.06-0.22,0.14-0.29,0.24s-0.1,0.22-0.1,0.37c0,0.21,0.06,0.38,0.17,0.5
			C5.66,21.58,5.86,21.64,6.14,21.64z"/>
		<path class="st0" d="M9.23,18.05h0.64v0.72c0.06-0.11,0.13-0.22,0.21-0.31s0.17-0.18,0.27-0.25s0.22-0.12,0.36-0.17
			c0.14-0.04,0.3-0.06,0.48-0.07v0.6c-0.2,0.01-0.38,0.04-0.55,0.08c-0.16,0.04-0.3,0.11-0.42,0.21c-0.12,0.1-0.2,0.23-0.27,0.39
			c-0.06,0.16-0.09,0.37-0.09,0.61v2.21H9.23V18.05z"/>
		<path class="st0" d="M13.39,22.13c-0.37,0-0.64-0.1-0.82-0.29c-0.18-0.2-0.27-0.45-0.27-0.77v-2.48h-0.58v-0.54h0.58v-0.92h0.64
			v0.92h0.94v0.54h-0.94v2.42c0,0.39,0.17,0.59,0.5,0.59c0.1,0,0.19-0.01,0.27-0.02c0.08-0.02,0.15-0.04,0.22-0.06v0.54
			c-0.07,0.03-0.14,0.05-0.22,0.06C13.63,22.13,13.52,22.13,13.39,22.13z"/>
		<path class="st0" d="M18.61,22.15c-0.29,0-0.55-0.05-0.79-0.15c-0.24-0.1-0.45-0.25-0.62-0.43s-0.31-0.4-0.41-0.65
			s-0.15-0.52-0.15-0.82v-0.06c0-0.3,0.05-0.58,0.15-0.83s0.24-0.47,0.41-0.65s0.38-0.32,0.62-0.42c0.24-0.1,0.51-0.15,0.79-0.15
			s0.55,0.05,0.79,0.15c0.24,0.1,0.45,0.24,0.63,0.42c0.17,0.18,0.31,0.4,0.41,0.65s0.15,0.53,0.15,0.83v0.06
			c0,0.3-0.05,0.58-0.15,0.84c-0.1,0.25-0.24,0.47-0.42,0.65s-0.39,0.32-0.63,0.42C19.17,22.1,18.9,22.15,18.61,22.15z M18.62,21.61
			c0.2,0,0.38-0.04,0.55-0.11c0.16-0.07,0.3-0.17,0.42-0.31c0.11-0.13,0.2-0.29,0.26-0.48c0.06-0.19,0.09-0.39,0.09-0.62v-0.05
			c0-0.23-0.03-0.44-0.09-0.63c-0.06-0.19-0.15-0.35-0.27-0.48s-0.25-0.24-0.42-0.31c-0.16-0.07-0.34-0.11-0.54-0.11
			s-0.38,0.04-0.55,0.11c-0.16,0.07-0.3,0.17-0.42,0.31c-0.11,0.13-0.2,0.29-0.26,0.48c-0.06,0.19-0.09,0.39-0.09,0.62v0.06
			c0,0.46,0.12,0.83,0.35,1.1C17.89,21.47,18.21,21.61,18.62,21.61z"/>
		<path class="st0" d="M21.73,18.59h-0.58v-0.54h0.58V17.4c0-0.41,0.1-0.73,0.3-0.96c0.2-0.23,0.5-0.34,0.9-0.34
			c0.1,0,0.19,0.01,0.25,0.02c0.07,0.01,0.14,0.03,0.22,0.06v0.55c-0.06-0.03-0.12-0.05-0.2-0.06c-0.08-0.02-0.16-0.02-0.25-0.02
			c-0.21,0-0.36,0.06-0.45,0.19c-0.09,0.13-0.13,0.29-0.13,0.5v0.72h0.99v0.54h-0.99v3.49h-0.64
			C21.73,22.09,21.73,18.59,21.73,18.59z"/>
		<path class="st0" d="M27.42,16.57h1.63l1.79,5.51h-1.3l-0.38-1.23h-2l-0.38,1.23h-1.17L27.42,16.57z M27.43,19.97h1.46l-0.72-2.38
			L27.43,19.97z"/>
		<path class="st0" d="M33.11,22.16c-0.29,0-0.57-0.04-0.82-0.13c-0.25-0.09-0.47-0.22-0.66-0.4c-0.18-0.17-0.33-0.39-0.44-0.64
			s-0.16-0.55-0.16-0.87v-0.06c0-0.32,0.05-0.62,0.16-0.87c0.11-0.26,0.26-0.48,0.45-0.67c0.19-0.18,0.41-0.32,0.66-0.41
			s0.52-0.14,0.81-0.14c0.23,0,0.46,0.03,0.67,0.08c0.22,0.05,0.41,0.14,0.59,0.27c0.17,0.12,0.31,0.29,0.42,0.49
			c0.11,0.2,0.18,0.44,0.21,0.73h-1.06c-0.04-0.23-0.12-0.4-0.26-0.52c-0.14-0.11-0.32-0.17-0.56-0.17c-0.29,0-0.53,0.1-0.7,0.31
			c-0.17,0.21-0.26,0.5-0.26,0.89v0.06c0,0.4,0.09,0.71,0.26,0.91s0.41,0.31,0.73,0.31c0.23,0,0.42-0.06,0.58-0.19
			C33.9,21,34,20.81,34.02,20.55h1.01c-0.02,0.24-0.07,0.46-0.16,0.66s-0.22,0.37-0.39,0.5c-0.16,0.14-0.36,0.26-0.59,0.34
			C33.66,22.12,33.4,22.16,33.11,22.16z"/>
		<path class="st0" d="M37.48,22.16c-0.29,0-0.57-0.04-0.82-0.13c-0.25-0.09-0.47-0.22-0.66-0.4c-0.18-0.17-0.33-0.39-0.44-0.64
			c-0.11-0.25-0.16-0.55-0.16-0.87v-0.06c0-0.32,0.05-0.62,0.16-0.87c0.11-0.26,0.26-0.48,0.45-0.67c0.19-0.18,0.41-0.32,0.66-0.41
			s0.52-0.14,0.81-0.14c0.23,0,0.46,0.03,0.67,0.08c0.22,0.05,0.41,0.14,0.59,0.27c0.17,0.12,0.31,0.29,0.42,0.49
			c0.11,0.2,0.18,0.44,0.21,0.73h-1.06c-0.04-0.23-0.12-0.4-0.26-0.52c-0.14-0.11-0.32-0.17-0.56-0.17c-0.29,0-0.53,0.1-0.7,0.31
			c-0.17,0.21-0.26,0.5-0.26,0.89v0.06c0,0.4,0.09,0.71,0.26,0.91s0.41,0.31,0.73,0.31c0.23,0,0.42-0.06,0.58-0.19
			c0.16-0.13,0.26-0.32,0.28-0.58h1.01c-0.02,0.24-0.07,0.46-0.16,0.66s-0.22,0.37-0.39,0.5c-0.16,0.14-0.36,0.26-0.59,0.34
			C38.04,22.12,37.77,22.16,37.48,22.16z"/>
		<path class="st0" d="M41.89,22.16c-0.3,0-0.58-0.05-0.84-0.14s-0.48-0.23-0.66-0.41c-0.19-0.17-0.34-0.39-0.44-0.64
			c-0.11-0.25-0.16-0.54-0.16-0.86v-0.06c0-0.32,0.05-0.61,0.16-0.86c0.11-0.26,0.25-0.48,0.44-0.66c0.18-0.18,0.4-0.32,0.65-0.42
			s0.52-0.15,0.82-0.15c0.26,0,0.51,0.04,0.75,0.12s0.44,0.2,0.62,0.37c0.18,0.16,0.32,0.38,0.43,0.64s0.16,0.57,0.16,0.93v0.31
			h-2.9c0.02,0.34,0.11,0.6,0.28,0.78s0.41,0.27,0.72,0.27c0.26,0,0.46-0.05,0.59-0.15s0.21-0.24,0.25-0.41h1.06
			c-0.07,0.44-0.27,0.77-0.6,1.01C42.89,22.05,42.44,22.16,41.89,22.16z M42.74,19.63c-0.02-0.31-0.11-0.54-0.25-0.68
			c-0.15-0.15-0.36-0.22-0.62-0.22c-0.25,0-0.46,0.08-0.62,0.23c-0.16,0.16-0.26,0.38-0.3,0.67H42.74z"/>
		<path class="st0" d="M44.48,18.05h1.12v0.64c0.1-0.2,0.26-0.37,0.48-0.52c0.22-0.14,0.49-0.22,0.83-0.22
			c0.2,0,0.38,0.03,0.55,0.09c0.16,0.06,0.31,0.15,0.43,0.28c0.12,0.13,0.21,0.29,0.28,0.49c0.07,0.2,0.1,0.43,0.1,0.7v2.57h-1.12
			v-2.4c0-0.28-0.06-0.48-0.17-0.61c-0.11-0.13-0.29-0.2-0.54-0.2c-0.24,0-0.44,0.07-0.6,0.22s-0.24,0.37-0.24,0.67v2.33h-1.12
			V18.05z"/>
		<path class="st0" d="M50.61,22.16c-0.43,0-0.75-0.11-0.97-0.32s-0.33-0.53-0.33-0.95v-2.04h-0.52v-0.79h0.52v-0.87h1.11v0.87h0.85
			v0.79h-0.85v1.94c0,0.16,0.04,0.28,0.11,0.36s0.19,0.12,0.34,0.12c0.08,0,0.16-0.01,0.23-0.02s0.13-0.03,0.2-0.06v0.86
			c-0.08,0.03-0.17,0.05-0.29,0.07C50.89,22.14,50.76,22.16,50.61,22.16z"/>
		<path class="st0" d="M53.31,22.16c-0.2,0-0.38-0.03-0.54-0.09c-0.17-0.06-0.31-0.15-0.44-0.27c-0.12-0.12-0.22-0.28-0.29-0.47
			c-0.07-0.19-0.1-0.42-0.1-0.68v-2.6h1.11v2.45c0,0.27,0.06,0.47,0.18,0.61c0.12,0.14,0.29,0.21,0.52,0.21
			c0.24,0,0.44-0.07,0.6-0.22s0.24-0.37,0.24-0.67v-2.38h1.11v4.03h-1.11v-0.63c-0.1,0.21-0.26,0.38-0.47,0.51
			C53.91,22.1,53.64,22.16,53.31,22.16z"/>
		<path class="st0" d="M56.6,18.05h1.12v0.77c0.13-0.27,0.3-0.48,0.5-0.62c0.21-0.14,0.47-0.21,0.8-0.22v1.04
			c-0.42-0.01-0.74,0.07-0.96,0.22c-0.23,0.15-0.34,0.42-0.34,0.81v2.02H56.6V18.05z"/>
		<path class="st0" d="M61.47,22.16c-0.3,0-0.58-0.05-0.84-0.14s-0.48-0.23-0.66-0.41c-0.19-0.17-0.34-0.39-0.44-0.64
			c-0.11-0.25-0.16-0.54-0.16-0.86v-0.06c0-0.32,0.05-0.61,0.16-0.86c0.11-0.26,0.25-0.48,0.44-0.66c0.18-0.18,0.4-0.32,0.65-0.42
			s0.52-0.15,0.82-0.15c0.26,0,0.51,0.04,0.75,0.12s0.44,0.2,0.62,0.37c0.18,0.16,0.32,0.38,0.43,0.64s0.16,0.57,0.16,0.93v0.31
			h-2.9c0.02,0.34,0.11,0.6,0.28,0.78s0.41,0.27,0.72,0.27c0.26,0,0.46-0.05,0.59-0.15s0.21-0.24,0.25-0.41h1.06
			c-0.07,0.44-0.27,0.77-0.6,1.01C62.46,22.05,62.02,22.16,61.47,22.16z M62.31,19.63c-0.02-0.31-0.11-0.54-0.25-0.68
			c-0.15-0.15-0.36-0.22-0.62-0.22c-0.25,0-0.46,0.08-0.62,0.23c-0.16,0.16-0.26,0.38-0.3,0.67H62.31z"/>
	</g>
</g>
</svg>
